# xmcd
#
# Track frame offsets:
#	150
#	19519
#	33228
#	50202
#	67511
#	82379
#
# Disc length: 1297 seconds
#
# Revision: 1
# Processed by: cddbd v1.5.2PL0 Copyright (c) Steve Scherf et al.
# Submitted via: audiograbber 1.81.03
#
DISCID=45050f06
DTITLE=Matt`Humphreys - Everything Changed On The Way
DYEAR=2007
DGENRE=Country
TTITLE0=Everything Changed On The Way
TTITLE1=Salinger Sent
TTITLE2=Bailee
TTITLE3=Mrs Carter
TTITLE4=This One
TTITLE5=Carson's Groove
EXTD=
EXTT0=
EXTT1=
EXTT2=
EXTT3=
EXTT4=
EXTT5=
PLAYORDER=
